<svg width="200" height="42" xmlns="http://www.w3.org/2000/svg" xmlns:xlink="http://www.w3.org/1999/xlink"><defs><path id="a" d="M.178.054H44.42v16.88H.18z"/><path id="c" d="M.396.137h79.201v1.53H.396z"/><path id="e" d="M0 .26h79.2v1.53H0z"/><path id="g" d="M.393.137h44.152v17.042H.393z"/></defs><g fill="none" fill-rule="evenodd"><g transform="translate(6.407 24.577)"><mask id="b" fill="#fff"><use xlink:href="#a"/></mask><path d="M28.827 16.164l.401-2.191-7.103.723-.394 2.145 7.096-.677zm-6.399-3.124H29.4l.376-2.052h-2.611l3.808-5.642h-2.587L31.938.077H28.58l-5.183 7.67h2.588l-3.558 5.293zm14.522 2.052l-7.482 1.772.521-2.845 6.41-1.515-.535-2.425H30.71l.483-2.635h4.104L34.72 4.74h-3.032l.484-2.634h1.981L33.71.077h3.707l.42 2.029h2.495L40.005.077h3.637l.777 4.663H38.404l.6 2.704h4.92l-.483 2.635h-3.87l.339 1.586 3.39-.816-.521 2.844-2.295.56.566 2.634h-3.683l-.417-1.795zM.178 11.572h2.798l-.983 5.362h2.984l1.534-8.37.231 4.336H9.4l-.345-6.132H7.26l3.57-4.849H7.66L7.207.054H3.804l.451 1.865H2.483L2.06 4.228h3.66L.179 11.57zM12.104.053h8.533c.622 0 1.106.217 1.455.653.347.435.465.955.354 1.562L20.55 12.621h-3.24l1.764-9.63c.057-.31-.004-.57-.183-.78a.89.89 0 0 0-.712-.315h-3.404l-1.948 10.631 1.07-1.002L15.28 3.97h2.984l-1.534 8.37-1.129 1.072h2.425l-.184 1.003c-.037.202-.006.373.093.513a.607.607 0 0 0 .493.233h2.355l-1.327 1.772h-2.519c-.404 0-.726-.063-.968-.187a2.036 2.036 0 0 1-.694-.536 2.14 2.14 0 0 1-.41-.816 2.419 2.419 0 0 1-.022-1.026l.056-.303-2.974 2.868h-3.87l4.66-4.313H9.801L12.104.054z" fill="#004F89" mask="url(#b)"/></g><path fill="#004F89" d="M57.866 41.51l57.603-26.367L118.356.607 60.753 26.975z"/><path fill="#F2C527" d="M78.531 34.352h108.904l3.377-1.53H81.872zM70.712 37.932H179.65l3.343-1.53H74.053zM62.892 41.51H171.84l3.358-1.53H66.235zM86.35 30.773H195.29l3.342-1.53H89.914l-.61.178z"/><path d="M189.25 23.244c4.828 0 7.69-2.826 8.366-6.594.787-4.386-1.337-6.33-6.047-6.33h-9.48c-.912 0-1.41-.5-1.226-1.53.185-1.03.864-1.53 1.776-1.53h12.596l4.69-5.417H183.61c-4.622 0-7.64 2.708-8.29 6.33-.66 3.679 1.59 6.24 5.976 6.24h9.537c1.267 0 1.91.677 1.72 1.737-.19 1.06-1.061 1.648-2.327 1.648H176.46l-4.69 5.446h17.48zm-19.666 0h-5.358l-.735-11.98-7.201 10.273c-.904 1.266-1.802 2.002-3.097 2.002s-1.928-.736-2.378-2.002l-3.485-10.274-5.035 11.981h-5.328l8.471-19.488c.647-1.472 1.662-2.208 3.046-2.208 1.148 0 2.004.648 2.356 1.796l3.988 12.07 8.288-12.07c.766-1.148 1.735-1.796 2.883-1.796 1.296 0 2.017.736 2.136 2.208l1.449 19.488zm-39.95 0l2.87-15.984h6.709l4.69-5.417h-20.666l-4.69 5.417h8.51l-2.868 15.984h5.446z" fill="#004F89"/><g transform="translate(33.867 .321)"><mask id="d" fill="#fff"><use xlink:href="#c"/></mask><path d="M46.766 1.666h29.489l3.342-1.53H41.192l.086.441h5.098a.493.493 0 0 1 .474.623l-.084.466zm-16.498 0h.86l.124-.683a.49.49 0 0 1 .482-.404V.577h4.65L36.316.23a.485.485 0 0 1-.009-.092h-6.396a.73.73 0 0 1 .007.03l.35 1.5zm-11.865 0h7.614L25.714.362a.494.494 0 0 1 .002-.225h-6.783a.48.48 0 0 1-.04.31l-.49 1.22zm-5.822 0h1.383l.614-1.53h-1.753a.48.48 0 0 1-.009.225l-.235 1.305zm-12.185 0h4.248L4.88 1a.49.49 0 0 1 .463-.328h2.681c.067 0 .131.013.19.037l.102-.565.001-.006H3.738L.396 1.667z" fill="#E50113" mask="url(#d)"/></g><path d="M47.185 3.595h-.057c.016.008.03.018.046.028l.011-.028zm23.983 1.53h4.122l-.008-.056a.49.49 0 0 1 .486-.555v-.002h2.798c.256 0 .466.196.49.445l.02.168h24.187l3.343-1.53H80.342a.491.491 0 0 1-.473.36v.002h-7.722l-.979 1.168zm-6.302 0h1.615l.855-1.168h-2.108a.492.492 0 0 1-.475-.362h-.244l.357 1.53zm-6.206 0h.366l-.138-.595a.491.491 0 0 1 .479-.6h.967l-.077-.335h-1.322l-.275 1.53zm-31.255 0h9.998l.54-1.53h-7.196l-3.342 1.53zM79.466 8.261h16.95l3.342-1.53H79.276l.19 1.53zm-15.471 0h.266c.011-.1.052-.19.113-.263l.928-1.267h-1.668l.36 1.53zm-5.9 0h1.656l-.354-1.53H58.37l-.276 1.53zm-11.539 0h.293l.51-1.53h-.601a.49.49 0 0 1-.285.092v.002h-.896l-.236 1.312.62-.179a.492.492 0 0 1 .595.303zm-25.998 0h20.22l.26-1.436h-3.54a.49.49 0 0 1-.29-.094H23.9l-3.342 1.53zM77.609 11.398h11.954l3.341-1.53h-15.02l-.275 1.53zm-4.29 0h.496l.276-1.53h-.496l-.276 1.53zm-4.741 0h.947l.276-1.53h-.783l-.44 1.53zm-11.049 0h2.001l.42-.833a.49.49 0 0 1 .439-.27v-.001h3.24a.492.492 0 0 1 .422.744l-.18.36h.89l.44-1.53h-.917a.491.491 0 0 1-.458.313h-3.24a.492.492 0 0 1-.46-.313h-2.321l-.276 1.53zm-4.399 0h.162l.19-1.056-.352 1.056zm-39.427 0h22.314l.054-.302a.49.49 0 0 1 .346-.385l2.912-.843H17.046l-3.343 1.53zM77.043 14.535h6.28l3.342-1.53h-9.346l-.276 1.53zm-4.29 0h.497l.276-1.53h-.497l-.275 1.53zm-5.08 0h1.287l.276-1.53h-1.122l-.442 1.53zm-5.385 0h1.568l.44-1.53H63.06l-.77 1.53zm-5.324 0h.984l.772-1.53h-1.48l-.276 1.53zm-4.882 0h.645l.276-1.53h-.41l-.51 1.53zm-7.895 0h.566l.511-1.53h-.8l-.277 1.53zm-37.334 0h32.795l.248-1.38-3.669 1.063a.49.49 0 0 1-.616-.572l.116-.641H10.195l-3.342 1.53z" fill="#E50113"/><g transform="translate(0 15.882)"><mask id="f" fill="#fff"><use xlink:href="#e"/></mask><path d="M77.785.908L79.2.26h-1.023l-.393.648zm-5.616.882h1.9a2.132 2.132 0 0 1-.519-.45 2.068 2.068 0 0 1-.476-1.08h-.61l-.252 1.398a.492.492 0 0 1-.043.132zm-5.41 0h1.732a.487.487 0 0 1-.033-.349L68.67.26h-1.46l-.418 1.446a.49.49 0 0 1-.032.084zm-6.052 0h2.375a.481.481 0 0 1-.016-.4l.326-1.13h-1.914l-.771 1.53zm-6.089 0h1.944a.49.49 0 0 1 .03-.447L57.138.26h-.715a4.086 4.086 0 0 1-.797.917 3.78 3.78 0 0 1-1.008.613zm-11.045 0h.346a.488.488 0 0 1-.053-.48l.35-1.05h-.318l-.24 1.328a.49.49 0 0 1-.085.202zM0 1.79h39.234a.488.488 0 0 1-.076-.419l.2-1.111H3.342L0 1.79z" fill="#E50113" mask="url(#f)"/></g><g transform="translate(35.698 .321)"><mask id="h" fill="#fff"><use xlink:href="#g"/></mask><path d="M36.032 17.133h-2.798l1.475-8.184h2.797l-1.474 8.184zm-3.049-8.184l-2.36 8.184h-2.798l2.361-8.184h2.797zm-3.08-7.88h5.246l-.181-.932h3.894l.18.932h5.503l-.374 2.075h-7.95l-2.405 2.868h6.435l-.18-1.33h2.797l.466 3.755h-2.797l-.06-.443H29.051l3.556-4.85H29.53l.374-2.075zM23.67 4.1h1.585L24.362.253h3.24l1.224 5.246h-1.609l.911 3.87h-3.24L23.668 4.1zm.888 13.056l3.374-6.691h-3.24l-3.375 6.691h3.241zm17.686-1.888l-1.16 1.911h-1.516c-.56 0-1.005-.198-1.338-.594-.333-.397-.448-.882-.344-1.457l1.113-6.179h2.799l-.85 4.71-.07.396-.135.746a.383.383 0 0 0 .081.327.37.37 0 0 0 .3.14h1.12zm-27.327 1.795l3.746-11.215h-3.008l-3.746 11.215h3.008zm-2.55-11.215L8.62 17.063h2.752l3.746-11.215h-2.751zm-2.48-2.145h1.305l-.416 2.309H9.469L9.02 8.507l1.377-.397-.458 2.541-1.381.42-1.08 5.992H3.934l.887-4.92-4.428 1.283.463-2.565L5.283 9.58l.643-3.567H1.799l1.713-4.85h2.681L5.41 3.703h.933L6.968.23h3.543l-.626 3.473zm5.93-1.468h7.11l-.025.14-.39 2.168-1.803 10.002a2.793 2.793 0 0 1-.39 1.002c-.196.311-.432.583-.707.816-.275.234-.58.416-.914.549a2.752 2.752 0 0 1-1.015.197h-2.285l.738-2.028h.513a.83.83 0 0 0 .55-.21.858.858 0 0 0 .303-.513l1.769-9.815h-7.764L13.24.23h3.38l-.804 2.005z" fill="#004F89" mask="url(#h)"/></g></g></svg>