<svg width="68" height="18" xmlns="http://www.w3.org/2000/svg" xmlns:xlink="http://www.w3.org/1999/xlink"><defs><path id="a" d="M.06.022h15.043v6.98H.06z"/><path id="c" d="M.135.057h26.928v.632H.135z"/><path id="e" d="M0 .107h26.928V.74H0z"/><path id="g" d="M.134.057h15.011v7.047H.134z"/></defs><g fill="none" fill-rule="evenodd"><g transform="translate(2.178 10.163)"><mask id="b" fill="#fff"><use xlink:href="#a"/></mask><path d="M9.801 6.684l.137-.906-2.416.299-.133.887 2.412-.28zM7.626 5.392h2.37l.128-.848h-.888L10.53 2.21h-.88L10.859.032H9.718L7.955 3.204h.88l-1.21 2.188zm4.937.849l-2.544.732.177-1.176 2.18-.626-.182-1.003h-1.752l.164-1.09H12l-.196-1.118h-1.03l.164-1.09h.673l-.15-.838h1.26l.143.839h.848l-.111-.839h1.236l.265 1.928H13.057l.204 1.118h1.673l-.164 1.09h-1.316l.115.655 1.153-.337-.177 1.176-.78.231.192 1.09h-1.252l-.142-.742zM.061 4.785h.95L.679 7.002h1.014l.522-3.46.078 1.792h.904L3.079 2.8h-.61L3.681.794H2.604L2.451.022H1.293l.154.772H.844L.7 1.748h1.245L.061 4.785zM4.115.022h2.902a.56.56 0 0 1 .494.27c.118.18.158.395.12.646l-.644 4.28H5.885l.6-3.98a.43.43 0 0 0-.062-.324.283.283 0 0 0-.242-.13H5.023L4.361 5.18l.363-.414.471-3.124H6.21l-.522 3.461-.384.444h.825l-.063.414a.317.317 0 0 0 .032.212c.043.065.099.097.168.097h.8l-.451.732h-.856a.614.614 0 0 1-.33-.077.73.73 0 0 1-.236-.222.97.97 0 0 1-.139-.337 1.212 1.212 0 0 1-.007-.424l.019-.126-1.011 1.186H2.739L4.323 5.22h-.99L4.114.022z" fill="#FFF" mask="url(#b)"/></g><path fill="#FFF" d="M19.674 17.165L39.26 6.262 40.241.25 20.656 11.155zM26.7 14.205h37.028l1.148-.633h-37.04zM24.042 15.685h37.04l1.135-.632H25.178zM21.383 17.165h37.042l1.142-.632H22.52zM29.36 12.725h37.038l1.137-.633H30.57l-.207.074z"/><path d="M64.345 9.612c1.641 0 2.615-1.169 2.844-2.727.268-1.814-.454-2.617-2.056-2.617H61.91c-.31 0-.48-.207-.416-.633.062-.426.293-.633.603-.633h4.283l1.594-2.24h-5.546c-1.572 0-2.598 1.12-2.819 2.617-.224 1.522.54 2.58 2.032 2.58h3.243c.43 0 .649.281.584.72-.064.437-.36.68-.79.68h-4.682l-1.594 2.253h5.943zm-6.687 0h-1.821l-.25-4.954-2.448 4.248c-.308.523-.613.828-1.053.828-.44 0-.656-.305-.809-.828l-1.185-4.248-1.712 4.954H46.57l2.88-8.059c.22-.608.565-.913 1.036-.913.39 0 .68.268.8.743l1.356 4.99 2.818-4.99c.26-.475.59-.743.98-.743.441 0 .686.305.727.913l.492 8.059zm-13.582 0l.975-6.61h2.281l1.595-2.24H41.9l-1.594 2.24H43.2l-.975 6.61h1.852z" fill="#F0000D"/><g transform="translate(11.515 .133)"><mask id="d" fill="#fff"><use xlink:href="#c"/></mask><path d="M15.9.689h10.027l1.136-.632H14.005l.03.182h1.733c.092 0 .167.09.167.203a.246.246 0 0 1-.006.054L15.9.69zm-5.609 0h.293l.042-.283c.014-.098.084-.167.164-.167h1.58l-.023-.144a.243.243 0 0 1-.003-.038H10.17a.36.36 0 0 1 .002.012l.119.62zm-4.034 0h2.589l-.103-.54a.247.247 0 0 1 0-.092H6.437a.24.24 0 0 1-.014.128l-.166.504zm-1.98 0h.47l.21-.632H4.36a.24.24 0 0 1-.002.092l-.08.54zm-4.142 0h1.444l.08-.276c.024-.083.089-.135.158-.135h.911c.023 0 .045.005.065.015l.034-.234V.057H1.272L.135.689z" fill="#FFF" mask="url(#d)"/></g><path d="M16.043 1.486h-.02l.016.012.004-.012zm8.154.633H25.6l-.003-.023c-.012-.11.052-.213.143-.228a.148.148 0 0 1 .022-.002h.951c.087 0 .159.08.167.184l.007.07h8.223l1.137-.634h-8.93c-.02.089-.086.15-.16.15H24.53l-.333.483zm-2.143 0h.55l.29-.483h-.717c-.077 0-.142-.063-.161-.15h-.083l.121.633zm-2.11 0h.125l-.047-.246c-.02-.109.036-.218.125-.243a.15.15 0 0 1 .038-.005h.329l-.027-.139h-.45l-.093.633zm-10.626 0h3.399l.184-.633h-2.447l-1.136.633zM27.018 3.416h5.764l1.136-.633h-6.964l.064.633zm-5.26 0h.09a.228.228 0 0 1 .04-.109l.315-.524h-.567l.122.633zm-2.006 0h.563l-.12-.633h-.35l-.093.633zm-3.923 0h.1l.173-.633h-.204a.148.148 0 0 1-.097.038v.001h-.305l-.08.543.21-.074c.085-.03.173.026.203.125zm-8.84 0h6.876l.088-.594h-1.204a.148.148 0 0 1-.098-.039H8.126l-1.136.633zM26.387 4.713h4.064l1.136-.632h-5.106l-.094.632zm-1.459 0h.17l.093-.632h-.169l-.094.632zm-1.612 0h.323l.093-.632h-.266l-.15.632zm-3.756 0h.68l.143-.344c.03-.071.088-.112.15-.112h1.1c.093 0 .168.09.168.203a.235.235 0 0 1-.024.104l-.061.15h.302l.15-.633h-.311a.182.182 0 0 1-.118.124.139.139 0 0 1-.038.005h-1.102c-.07 0-.132-.053-.156-.13h-.79l-.093.633zm-1.496 0h.055l.065-.437-.12.437zm-13.405 0h7.587l.018-.125c.012-.078.059-.138.118-.159l.99-.348H5.796l-1.137.632zM26.195 6.01h2.135l1.136-.632H26.29l-.094.632zm-1.459 0h.169l.094-.632h-.17l-.093.632zm-1.727 0h.437l.094-.632h-.381l-.15.632zm-1.831 0h.533l.15-.632h-.42l-.263.632zm-1.81 0h.334l.263-.632h-.503l-.094.632zm-1.66 0h.22l.093-.632h-.14l-.173.632zm-2.684 0h.192l.174-.632h-.273l-.093.632zm-12.694 0h11.15l.085-.57-1.248.44c-.088.03-.18-.031-.206-.139a.243.243 0 0 1-.003-.098l.04-.265H3.465L2.33 6.01z" fill="#FFF"/><g transform="translate(0 6.567)"><mask id="f" fill="#fff"><use xlink:href="#e"/></mask><path d="M26.447.376l.481-.269h-.347l-.134.269zm-1.91.364h.647a.789.789 0 0 1-.177-.186.936.936 0 0 1-.162-.447h-.207l-.086.579a.235.235 0 0 1-.015.054zm-1.839 0h.589a.238.238 0 0 1-.011-.144l.072-.489h-.497l-.142.599a.231.231 0 0 1-.01.034zm-2.058 0h.808a.235.235 0 0 1-.005-.165l.11-.468h-.65L20.64.74zm-2.07 0h.661a.241.241 0 0 1 .01-.185l.186-.448h-.243a1.71 1.71 0 0 1-.271.38 1.324 1.324 0 0 1-.343.253zm-3.755 0h.118a.242.242 0 0 1-.018-.199l.119-.434h-.109l-.081.55a.228.228 0 0 1-.03.083zM0 .74h13.34a.233.233 0 0 1-.026-.173l.068-.46H1.136L0 .74z" fill="#FFF" mask="url(#f)"/></g><g transform="translate(12.137 .133)"><mask id="h" fill="#fff"><use xlink:href="#g"/></mask><path d="M12.25 7.085h-.95l.5-3.384h.952l-.501 3.384zM11.215 3.7l-.802 3.384H9.46l.802-3.384h.951zM10.167.442h1.784l-.062-.385h1.324l.062.385h1.87l-.127.858h-2.703l-.818 1.186h2.188l-.061-.55h.951l.159 1.553h-.952l-.02-.184H9.878L11.087 1.3H10.04l.127-.858zm-2.12 1.253h.54L8.282.105h1.102l.416 2.169h-.547l.31 1.6H8.462l-.415-2.179zm.302 5.4l1.148-2.768H8.395L7.248 7.094h1.101zm6.014-.782l-.395.79h-.515a.527.527 0 0 1-.455-.245c-.113-.164-.152-.365-.117-.603l.378-2.554h.952l-.289 1.947-.024.164-.046.309a.184.184 0 0 0 .028.134c.026.04.06.058.102.058h.38zm-9.292.743l1.274-4.638H5.322L4.05 7.056H5.07zm-.866-4.638L2.93 7.056h.935L5.14 2.418h-.935zm-.844-.887h.444l-.141.955H3.22l-.153 1.032.468-.164-.156 1.05-.47.174-.366 2.478H1.338l.301-2.034-1.505.53.157-1.06 1.505-.531.219-1.475H.612L1.194.481h.912l-.267 1.05h.317L2.37.095h1.205L3.36 1.531zM5.377.924h2.418l-.009.058-.132.897-.613 4.135a1.312 1.312 0 0 1-.133.415 1.416 1.416 0 0 1-.24.337 1.088 1.088 0 0 1-.311.227.792.792 0 0 1-.345.082h-.777l.251-.839h.174a.256.256 0 0 0 .188-.087.376.376 0 0 0 .102-.212l.602-4.058h-2.64l.59-1.784H5.65l-.274.83z" fill="#FFF" mask="url(#h)"/></g></g></svg>