<svg width="20" height="20" xmlns="http://www.w3.org/2000/svg"><g fill="none" fill-rule="evenodd"><circle fill="#96EEDA" cx="10" cy="10" r="10"/><g fill="#FFF"><path d="M9.992 5.663a.364.364 0 0 1-.364-.364v-.377a.364.364 0 1 1 .729 0v.364a.364.364 0 0 1-.365.377zm3.218 3.522a1.778 1.778 0 1 1 0-3.556 1.778 1.778 0 0 1 0 3.556zm0-2.83a1.05 1.05 0 1 0 0 2.1 1.05 1.05 0 0 0 0-2.1z"/><path d="M14.381 14.285h-8.78a1.059 1.059 0 0 1-.62-1.915l1.045-.754a.501.501 0 0 0 .207-.405v-2.52a3.76 3.76 0 0 1 4.943-3.565.364.364 0 1 1-.23.69 3.032 3.032 0 0 0-3.984 2.875v2.518c.001.396-.188.768-.508 1l-1.044.755a.33.33 0 0 0 .193.596h8.778a.33.33 0 0 0 .193-.596l-1.045-.754a1.232 1.232 0 0 1-.509-.995v-.541a.364.364 0 0 1 .73 0v.535c0 .16.077.311.207.405l1.046.756a1.059 1.059 0 0 1-.62 1.917l-.002-.002z"/><path d="M9.992 15.7a2.119 2.119 0 0 1-2.062-1.67.364.364 0 1 1 .71-.153 1.381 1.381 0 0 0 2.702 0 .364.364 0 1 1 .713.152 2.119 2.119 0 0 1-2.063 1.67z"/></g></g></svg>