<svg width="15" height="16" xmlns="http://www.w3.org/2000/svg" xmlns:xlink="http://www.w3.org/1999/xlink"><defs><path id="a" d="M0 .014h1.003v1.52H0z"/><path id="c" d="M0 .021h14.994v12.856H0z"/></defs><g fill="none" fill-rule="evenodd"><g transform="translate(6.995 .01)"><mask id="b" fill="#fff"><use xlink:href="#a"/></mask><path d="M.501 1.534a.5.5 0 0 1-.5-.5v-.52a.501.501 0 1 1 1.001 0v.502a.5.5 0 0 1-.5.518" fill="#595959" mask="url(#b)"/></g><path d="M7.5 15.353a2.913 2.913 0 0 1-2.837-2.294.5.5 0 1 1 .977-.21 1.899 1.899 0 0 0 3.716 0 .501.501 0 1 1 .98.207 2.914 2.914 0 0 1-2.837 2.297" fill="#595959"/><g transform="translate(0 .537)"><mask id="d" fill="#fff"><use xlink:href="#c"/></mask><path d="M7.491 11.88H1.454a.454.454 0 0 1-.265-.82l1.435-1.036c.44-.32.7-.832.7-1.376V5.186a4.168 4.168 0 0 1 4.173-4.163 4.168 4.168 0 0 1 4.174 4.163v2.591a.502.502 0 0 0-.018.132v.744c0 .542.26 1.05.699 1.368l1.438 1.037a.454.454 0 0 1-.266.82H7.503v.002H7.49zm6.903-1.636l-1.436-1.037a.689.689 0 0 1-.285-.556V5.186A5.17 5.17 0 0 0 7.503.022H7.49a5.17 5.17 0 0 0-5.17 5.164v3.465c0 .22-.107.427-.286.556L.6 10.244a1.455 1.455 0 0 0 .852 2.633h12.09a1.456 1.456 0 0 0 .852-2.633z" fill="#595959" mask="url(#d)"/></g></g></svg>